<?xml version="1.0" encoding="utf-8"?>
<!-- Generator: Adobe Illustrator 21.0.2, SVG Export Plug-In . SVG Version: 6.00 Build 0)  -->
<svg version="1.1" id="Layer_1" xmlns="http://www.w3.org/2000/svg" xmlns:xlink="http://www.w3.org/1999/xlink" x="0px" y="0px"
	 viewBox="0 0 409 92" style="enable-background:new 0 0 409 92;" xml:space="preserve">
<style type="text/css">
	.st0{fill-rule:evenodd;clip-rule:evenodd;fill:#FF5B4D;}
</style>
<g>
	<path class="st0" d="M315.4,19.9c0,2.2-1.8,4-4.1,4c-2.2,0-4.1-1.8-4.1-4s1.8-4,4.1-4C313.6,15.9,315.4,17.7,315.4,19.9z M233,19.9
		c0,2.2-1.8,4-4.1,4c-2.2,0-4.1-1.8-4.1-4s1.8-4,4.1-4C231.2,15.9,233,17.7,233,19.9z M168.6,19.9c0,2.2-1.8,4-4.1,4
		c-2.2,0-4.1-1.8-4.1-4s1.8-4,4.1-4C166.8,15.9,168.6,17.7,168.6,19.9z M372.3,50.8c0,4.3,1.4,8,4.3,10.9c2.9,2.9,6.4,4.4,10.6,4.4
		c3.8,0,7.2-1.5,10.1-4.4c2.9-2.9,4.4-6.4,4.4-10.3c0-4.2-1.4-7.8-4.3-10.8c-2.9-3-6.3-4.5-10.3-4.5c-4.1,0-7.5,1.4-10.4,4.3
		C373.7,43.2,372.3,46.7,372.3,50.8z M401.2,72.4v-5.2c-2,2-4.2,3.6-6.6,4.6c-2.4,1.1-5,1.6-7.8,1.6c-6.5,0-11.8-2.1-16.1-6.4
		c-4.3-4.3-6.4-9.7-6.4-16.1c0-3,0.5-5.9,1.6-8.6c1.1-2.7,2.6-5.1,4.6-7.1c2.2-2.3,4.5-3.9,7.1-5c2.6-1.1,5.5-1.6,8.8-1.6
		c2.9,0,5.6,0.5,8.1,1.6c2.5,1,4.8,2.6,6.9,4.7v-19h7.7v56.6H401.2z M330.2,72.4h-7.7V29.7h7.4v4.9c1.6-1.9,3.4-3.3,5.3-4.2
		c1.9-0.9,4.2-1.3,6.7-1.3c5.6,0,10,1.6,13,4.9c3,3.3,4.5,8,4.5,14.1v24.4h-7.8V49.7c0-4.5-0.8-7.9-2.5-10.1
		c-1.7-2.2-4.3-3.3-7.9-3.3c-3.9,0-6.7,1.3-8.4,3.9c-1.7,2.6-2.6,6.8-2.6,12.8V72.4z M307.6,72.4h7.7V29.7h-7.7V72.4z M266.5,50.9
		c0-5.2-0.7-9-2.2-11.3c-1.5-2.4-3.8-3.5-7-3.5c-3.3,0-5.8,1.2-7.4,3.6c-1.6,2.4-2.4,6-2.4,11v21.9h-7.3V29.7h6.9v5
		c1.4-1.9,3-3.3,4.9-4.3c1.8-0.9,3.9-1.4,6.2-1.4c3.1,0,5.7,0.6,7.8,1.8c2.1,1.2,3.8,3.1,5.1,5.6c1.3-2.5,3.1-4.3,5.3-5.6
		c2.2-1.2,4.9-1.8,8-1.8c4.9,0,8.8,1.6,11.7,4.7c2.9,3.1,4.4,7.4,4.4,12.6v26.1h-7.8V47.5c0-3.7-0.8-6.5-2.4-8.5c-1.6-2-3.9-3-6.7-3
		c-3.4,0-5.8,1.1-7.2,3.2c-1.5,2.2-2.2,5.8-2.2,10.9v22.3h-7.5V50.9z M225.2,72.4h7.7V29.7h-7.7V72.4z M181.4,50.8
		c0,4.3,1.4,8,4.3,10.9c2.9,2.9,6.4,4.4,10.6,4.4c3.8,0,7.2-1.5,10.1-4.4c2.9-2.9,4.4-6.4,4.4-10.3c0-4.2-1.4-7.8-4.3-10.8
		c-2.9-3-6.3-4.5-10.3-4.5c-4.1,0-7.5,1.4-10.4,4.3C182.9,43.2,181.4,46.7,181.4,50.8z M176.2,75.9h8.2c1.2,2,2.8,3.5,4.7,4.6
		c1.9,1,4.2,1.6,6.7,1.6c4.4,0,7.9-1.3,10.5-3.9c2.7-2.6,4-6.1,4-10.4v-0.5c-2,2-4.2,3.6-6.6,4.6c-2.4,1.1-5,1.6-7.8,1.6
		c-6.5,0-11.8-2.1-16.1-6.4c-4.3-4.3-6.4-9.7-6.4-16.1c0-3,0.5-5.9,1.6-8.6c1.1-2.7,2.6-5.1,4.6-7.1c2.2-2.3,4.5-3.9,7.1-5
		c2.6-1.1,5.5-1.6,8.8-1.6c2.9,0,5.6,0.5,8.1,1.6c2.5,1,4.8,2.6,6.9,4.7v-5.2h7.7v35.7c0,7.4-1.9,13.3-5.8,17.5
		c-3.9,4.2-9.2,6.3-16,6.3c-4.9,0-9.1-1.2-12.6-3.5C180.2,83.4,177.7,80.1,176.2,75.9z M160.7,72.4h7.7V29.7h-7.7V72.4z M117,50.8
		c0,4.3,1.4,8,4.3,10.9c2.9,2.9,6.4,4.4,10.6,4.4c3.8,0,7.2-1.5,10.1-4.4c2.9-2.9,4.4-6.4,4.4-10.3c0-4.2-1.4-7.8-4.3-10.8
		c-2.9-3-6.3-4.5-10.3-4.5c-4.1,0-7.5,1.4-10.4,4.3C118.4,43.2,117,46.7,117,50.8z M145.9,72.4v-5.2c-2,2-4.2,3.6-6.6,4.6
		c-2.4,1.1-5,1.6-7.8,1.6c-6.5,0-11.8-2.1-16.1-6.4c-4.3-4.3-6.4-9.7-6.4-16.1c0-3,0.5-5.9,1.6-8.6c1.1-2.7,2.6-5.1,4.6-7.1
		c2.2-2.3,4.5-3.9,7.1-5c2.6-1.1,5.5-1.6,8.8-1.6c2.9,0,5.6,0.5,8.1,1.6c2.5,1,4.8,2.6,6.9,4.7v-19h7.7v56.6H145.9z M68,0v17.9v0.7
		v5.8v18.7v1.8v0.7v1.4c0,5.5-2.2,10.7-6.1,14.6c-0.3,0.3-0.6,0.5-0.9,0.8c-3.8,3.4-8.7,5.3-13.8,5.3h-0.6c-5.9,0-11.4-2.3-15.6-6.4
		c-1.8-1.8-3.3-3.9-4.4-6.2c-0.6-1.3-1.1-2.7-1.5-4.2c-0.3-1.3-0.5-2.5-0.6-3.9c0-0.4-0.1-0.7-0.1-1.1c0-5.7,2.3-11.1,6.4-15.1
		c4.1-4.1,9.6-6.3,15.4-6.3V0C34.4,0,22.6,4.5,13.6,13.5c-3.4,3.4-6.2,7.2-8.3,11.2C1.8,31.3,0,38.5,0,45.8c0,0.6,0,1.3,0.1,1.9
		c0,0.4,0.1,0.9,0.1,1.3c0.8,10.7,5.3,21.2,13.5,29.4c1.2,1.2,2.5,2.4,3.9,3.5c5,4,10.7,6.8,16.7,8.4c0.2,0.1,0.4,0.1,0.6,0.2
		c3.9,1,7.9,1.5,11.8,1.5h0.6c11.6,0,23.2-4.4,32-13.2c4.2-4.2,7.4-9,9.6-14.1c0.1-0.2,0.3-0.6,0.4-1c0.1-0.2,0.1-0.3,0.2-0.5
		c0.1-0.2,0.1-0.2,0.1-0.3c1.9-5.1,2.9-10.5,2.9-15.9V29.6V0H68z"/>
</g>
</svg>
